<mxfile host="app.diagrams.net" modified="2024-05-12T15:43:31.680Z" agent="Mozilla/5.0 (Windows NT 10.0; Win64; x64) AppleWebKit/537.36 (KHTML, like Gecko) Chrome/124.0.0.0 Safari/537.36 Edg/124.0.0.0" version="24.4.0" etag="wtZnHDPhu0MEmKyky4iA" type="github">
  <diagram name="Page-1" id="BJCbOZ3A6pbpLgf4P1U0">
    <mxGraphModel>
      <root>
        <mxCell id="0" />
        <mxCell id="1" parent="0" />
      </root>
    </mxGraphModel>
  </diagram>
</mxfile>
